<svg xmlns="http://www.w3.org/2000/svg" viewBox="20 20 160 160" width="256" height="256">
  <defs>
    <g id="open-chart-segment">
      <rect x="0" y="24" width="90" height="108" fill="#08111E" />

      <line x1="0" y1="24" x2="0" y2="132" stroke="#6B7485" stroke-width="6" stroke-linecap="butt" />
      <line x1="90" y1="24" x2="90" y2="132" stroke="#6B7485" stroke-width="6" stroke-linecap="butt" />

      <line x1="3" y1="24" x2="3" y2="132" stroke="#00D7E8" stroke-width="3" stroke-linecap="butt" />
      <line x1="87" y1="24" x2="87" y2="132" stroke="#00D7E8" stroke-width="3" stroke-linecap="butt" />
      <line x1="16" y1="24" x2="16" y2="132" stroke="#1E4260" stroke-width="2" stroke-linecap="butt" />
      <line x1="32" y1="24" x2="32" y2="132" stroke="#1E4260" stroke-width="2" stroke-linecap="butt" />
      <line x1="45" y1="24" x2="45" y2="132" stroke="#1E4260" stroke-width="2" stroke-linecap="butt" />
      <line x1="58" y1="24" x2="58" y2="132" stroke="#1E4260" stroke-width="2" stroke-linecap="butt" />
      <line x1="74" y1="24" x2="74" y2="132" stroke="#1E4260" stroke-width="2" stroke-linecap="butt" />

      <line x1="3" y1="46" x2="87" y2="46" stroke="#395A73" stroke-width="2.4" stroke-linecap="round" />
      <line x1="3" y1="68" x2="87" y2="68" stroke="#395A73" stroke-width="2.4" stroke-linecap="round" />
      <line x1="3" y1="90" x2="87" y2="90" stroke="#395A73" stroke-width="2.4" stroke-linecap="round" />
      <line x1="3" y1="112" x2="87" y2="112" stroke="#395A73" stroke-width="2.4" stroke-linecap="round" />
    </g>
  </defs>

  <g>
    <rect x="28" y="24" width="144" height="152" rx="14"
          fill="white" stroke="white" stroke-width="20" stroke-linejoin="round" />
    <rect x="28" y="24" width="144" height="152" rx="14"
          fill="#FFF3E0" stroke="#6B7485" stroke-width="10" stroke-linejoin="round" />
    <line x1="38" y1="48" x2="162" y2="48" stroke="#6B7485" stroke-width="6" stroke-linecap="round" />
    <circle cx="46" cy="36" r="5" fill="#FFB6D9" stroke="#6B7485" stroke-width="3" />
    <circle cx="62" cy="36" r="5" fill="#FFF9C4" stroke="#6B7485" stroke-width="3" />
    <circle cx="78" cy="36" r="5" fill="#98E2C6" stroke="#6B7485" stroke-width="3" />
  </g>

  <g transform="translate(55,30)">
    <use href="#open-chart-segment" />

    <ellipse cx="14" cy="38" rx="5" ry="2.4" fill="#FFFFFF" stroke="#8AEFFF" stroke-width="2" />
    <ellipse cx="38" cy="56" rx="5" ry="2.4" fill="#FFFFFF" stroke="#8AEFFF" stroke-width="2" />
    <ellipse cx="64" cy="80" rx="5" ry="2.4" fill="#FFFFFF" stroke="#8AEFFF" stroke-width="2" />
    <ellipse cx="25" cy="98" rx="5" ry="2.4" fill="#FFFFFF" stroke="#8AEFFF" stroke-width="2" />
    <ellipse cx="77" cy="112" rx="5" ry="2.4" fill="#FFFFFF" stroke="#8AEFFF" stroke-width="2" />

    <rect x="52" y="50" width="7" height="15" rx="2"
          fill="#9BF28E" stroke="#52BE5F" stroke-width="2" />
    <path d="M 55.5,65 C 55.5,75 42,82 34,90"
          fill="none" stroke="#52BE5F" stroke-width="8" stroke-linecap="round" />
    <path d="M 55.5,65 C 55.5,75 42,82 34,90"
          fill="none" stroke="#9BF28E" stroke-width="4" stroke-linecap="round" />
    <rect x="30.5" y="89" width="7" height="15" rx="2"
          fill="#9BF28E" stroke="#52BE5F" stroke-width="2" />
    <rect x="65" y="72" width="7" height="15" rx="2"
          fill="#9BF28E" stroke="#52BE5F" stroke-width="2" />
    <path d="M 68.5,87 C 68.5,95 75,101 81,108"
          fill="none" stroke="#52BE5F" stroke-width="8" stroke-linecap="round" />
    <path d="M 68.5,87 C 68.5,95 75,101 81,108"
          fill="none" stroke="#9BF28E" stroke-width="4" stroke-linecap="round" />
    <rect x="77.5" y="107" width="7" height="15" rx="2"
          fill="#9BF28E" stroke="#52BE5F" stroke-width="2" />
  </g>
</svg>
